<svg xmlns="http://www.w3.org/2000/svg" width="440" height="440"><path d="M278.234 51.3 280 53v2h2v2h2a90 90 0 0 1 4.625 6l1.344 1.894C294.788 71.872 298.495 79.297 302 87l1.57 3.434c5.085 11.636 5.085 11.636 3.993 18.191-2.731 4.15-7.197 6.192-11.563 8.375 1.716 13.545 5.695 20.13 15 30 6.99 7.626 6.99 7.626 8 12-.31 5.177-.31 5.177-2.328 7.586-5.065 4.283-13.395 5.6-19.672 7.414v2c-7.125 6.97-14.678 9.14-24.437 9.375-9.631-.212-16.385-2.571-24.563-7.375l-.445 3.594c-1.507 11.19-4.168 21.02-8.555 31.406q-1.005 2.499-2 5 4.034 1.114 8.078 2.2c2.238.613 4.46 1.287 6.672 1.988 14.378 3.419 28.169-.78 41.688-5.375 12.124-3.8 24.672-4.312 36.164 1.503A145 145 0 0 1 336 222l-.477-1.535c-6.33-29.809 12.613-68.187 28.29-92.402A355 355 0 0 1 368 122l1.82-2.621c2.86-3.985 2.86-3.985 4.18-5.379h2v-2c3.861-3.56 7.953-5.374 13.188-5.625 3.739.195 4.69.534 7.812 2.875 5.875 8.078 4.961 18.157 3.453 27.734C394.986 165.29 379.12 210.174 355 228a110 110 0 0 1-5 3c1.33 2.922 2.826 5.084 5 7.438 3.642 4.203 5.09 6.715 4.813 12.437-.516 3.273-1.56 5.944-3 8.938-1.534 4.128-2.063 8.549-2.774 12.882-1.461 4.649-4.05 7.007-8.074 9.633-4.596 2.09-8.207 2.823-13.277 2.922-3.03.054-3.03.054-5.688.75-1.656 1.937-2.36 3.661-3.223 6.047C323 294 323 294 320.625 296.125c-3.577 1.192-5.27.48-8.625-1.125-1.937-1.25-1.937-1.25-3-3 .088-3.87 1.148-6.379 3.188-9.562 2.173-3.214 2.173-3.214 1.187-6.125L312 274c-1.509-2.54-2.018-3.63-1.875-6.625.875-2.375.875-2.375 2.93-3.523L315 263l-2.965-.734-3.973-1.016c-.692-.172-1.385-.344-2.1-.52-3.95-1.026-6.96-2.223-10.4-4.48-3.329-1.574-4.48-1.277-8.066-.105-8.502 3.853-16.363 9.147-24.088 14.347C258.191 274 258.191 274 256 274c4.951 13.074 11.47 26.028 23.7 33.691 4.21 1.67 8.063 1.944 12.55 2.247 10.537.928 19.394 2.909 26.75 11.062 3.39 4.92 3.345 9.242 3 15h-3l-2.125-3c-1.502-1.857-2.441-2.847-4.707-3.645-7.783-.62-14.608 3.987-21.168 7.645 2.098 2.098 3.38 2.65 6.125 3.625 1.087.39 1.087.39 2.195.79.555.192 1.109.386 1.68.585v3c-13.379 4.372-26.316 2.584-38.863-3.355-6.255-3.228-11.74-7.142-17.137-11.645-2.511 2.489-4.992 4.991-7.402 7.578-9.532 10.046-20.291 16.45-32.68 22.465C192.39 366.06 192.39 366.06 182 375c-.803 3.145-.803 3.145-1 6 4.181 2.027 7.373 2.409 12 2 2.757-1.19 5.22-2.766 7.75-4.375 10.132-6.031 19.485-8.066 31.25-5.625 5.464 1.99 9.798 4.01 13 9 .688 2.25.688 2.25 1 4-5.75-.875-5.75-.875-8-2l1.5 2.688c1.444 3.188 1.802 4.894 1.5 8.312-4.316 1.439-7.74.405-12-1l-3-2.125c-4.17-2.606-7.204-2.6-12-1.875-6.888 1.717-13.084 4.295-19.16 7.95-5.307 3.03-11.071 2.663-16.875 1.378A223 223 0 0 1 170 397c2.677 3.627 6.245 3.926 10.438 4.563l2.33.37c54.543 8.045 111.33.802 156.623-32.402A218 218 0 0 0 359 353l2.676-2.516c21.269-20.577 36.517-46.35 44.238-74.859C408.256 267.4 411.338 259.708 418 254c3.584-.534 5.283-.518 8.25 1.625 6.287 8.532 4.758 22.582 3.461 32.605-3.8 20.74-15.997 40.187-29.711 55.77l-2.176 2.508C358.668 390.88 302.734 417.71 244 423c-2.929.145-5.853.186-8.785.203l-2.455.021c-2.608.018-5.215.024-7.822.026l-2.71.002c-14.29-.017-28.134-.756-42.228-3.252l-2.98-.488c-56.17-9.284-107.356-38.892-140.957-85.137C11 299.111 2.54 257.709 9.096 215.061c6.753-39.786 27.443-76.624 60.636-100.29A304 304 0 0 1 80 108l1.856-1.179c21.19-13.198 44.991-20.662 68.674-27.962C174.417 72.292 174.417 72.292 194 58l2.188-2.5c3.528-4.867 3.935-8.36 4.812-14.5h-17l1-3c1.727-.86 1.727-.86 3.98-1.535l2.509-.761 2.698-.767 2.748-.797c30.304-8.53 56.743-2.492 81.3 17.16" fill="#282c34"/><path d="M278.234 51.3 280 53v2h2v2h2a90 90 0 0 1 4.625 6l1.344 1.894C294.788 71.872 298.495 79.297 302 87l1.57 3.434c5.085 11.636 5.085 11.636 3.993 18.191-2.731 4.15-7.197 6.192-11.563 8.375 1.716 13.545 5.695 20.13 15 30 6.99 7.626 6.99 7.626 8 12-.31 5.177-.31 5.177-2.328 7.586-5.065 4.283-13.395 5.6-19.672 7.414v2c-7.125 6.97-14.678 9.14-24.437 9.375-9.631-.212-16.385-2.571-24.563-7.375l-.445 3.594c-1.507 11.19-4.168 21.02-8.555 31.406q-1.005 2.499-2 5 4.034 1.114 8.078 2.2c2.238.613 4.46 1.287 6.672 1.988 14.378 3.419 28.169-.78 41.688-5.375 12.124-3.8 24.672-4.312 36.164 1.503A145 145 0 0 1 336 222l-.477-1.535c-6.33-29.809 12.613-68.187 28.29-92.402A355 355 0 0 1 368 122l1.82-2.621c2.86-3.985 2.86-3.985 4.18-5.379h2v-2c3.861-3.56 7.953-5.374 13.188-5.625 3.739.195 4.69.534 7.812 2.875 5.875 8.078 4.961 18.157 3.453 27.734C394.986 165.29 379.12 210.174 355 228a110 110 0 0 1-5 3c1.33 2.922 2.826 5.084 5 7.438 3.642 4.203 5.09 6.715 4.813 12.437-.516 3.273-1.56 5.944-3 8.938-1.534 4.128-2.063 8.549-2.774 12.882-1.461 4.649-4.05 7.007-8.074 9.633-4.596 2.09-8.207 2.823-13.277 2.922-3.03.054-3.03.054-5.688.75-1.656 1.937-2.36 3.661-3.223 6.047C323 294 323 294 320.625 296.125c-3.577 1.192-5.27.48-8.625-1.125-1.937-1.25-1.937-1.25-3-3 .088-3.87 1.148-6.379 3.188-9.562 2.173-3.214 2.173-3.214 1.187-6.125L312 274c-1.509-2.54-2.018-3.63-1.875-6.625.875-2.375.875-2.375 2.93-3.523L315 263l-2.965-.734-3.973-1.016c-.692-.172-1.385-.344-2.1-.52-3.95-1.026-6.96-2.223-10.4-4.48-3.329-1.574-4.48-1.277-8.066-.105-8.502 3.853-16.363 9.147-24.088 14.347C258.191 274 258.191 274 256 274c4.951 13.074 11.47 26.028 23.7 33.691 4.21 1.67 8.063 1.944 12.55 2.247 10.537.928 19.394 2.909 26.75 11.062 3.39 4.92 3.345 9.242 3 15h-3l-2.125-3c-1.502-1.857-2.441-2.847-4.707-3.645-7.783-.62-14.608 3.987-21.168 7.645 2.098 2.098 3.38 2.65 6.125 3.625 1.087.39 1.087.39 2.195.79.555.192 1.109.386 1.68.585v3c-13.379 4.372-26.316 2.584-38.863-3.355-6.255-3.228-11.74-7.142-17.137-11.645-2.511 2.489-4.992 4.991-7.402 7.578-9.532 10.046-20.291 16.45-32.68 22.465C192.39 366.06 192.39 366.06 182 375c-.803 3.145-.803 3.145-1 6 4.181 2.027 7.373 2.409 12 2 2.757-1.19 5.22-2.766 7.75-4.375 10.132-6.031 19.485-8.066 31.25-5.625 5.464 1.99 9.798 4.01 13 9 .688 2.25.688 2.25 1 4-5.75-.875-5.75-.875-8-2l1.5 2.688c1.444 3.188 1.802 4.894 1.5 8.312-4.316 1.439-7.74.405-12-1l-3-2.125c-4.17-2.606-7.204-2.6-12-1.875-6.888 1.717-13.084 4.295-19.16 7.95-5.951 3.398-12.701 2.553-19.09.863-4.33-1.43-6.887-3.169-9.75-6.813l-1.812-2.25c-1.719-3.98-1.849-7.482-1.188-11.75 1.5-3.062 1.5-3.062 4-6l1.484-1.828c7.91-8.889 19.28-13.732 29.914-18.6 8.089-3.704 15.08-7.384 21.602-13.572l2.383-2.148c8.214-7.726 14.482-16.65 14.992-28.164-.125-6.533-1.903-11.887-6.25-16.813-4.211-1.734-8.013.07-12.086 1.512-19.832 6.638-45.033 11.332-64.879 2.324-5.769-3.245-12.125-7.642-15.16-13.711-4.453.573-7.723 2.412-11.5 4.688-5.405 3.169-10.91 6.037-16.578 8.707l-1.901.898a855 855 0 0 1-9.464 4.393C89.109 304.582 78.857 310.45 72 320c-1.921-4.96.528-9.025 2.418-13.68 2.257-4.737 5.07-8.452 8.582-12.32l1.7-2.012c7.763-8.572 18.298-13.547 28.523-18.578l1.966-.97a796 796 0 0 1 9.849-4.772C147.062 257.055 161.375 241.014 170 218c3.199 8.425-3.964 22.407-7.355 30.41-3.413 7.45-7.422 14.272-12.645 20.59 3.812 8.259 8.342 12.548 16.578 16.117C202.031 294.264 241.031 269.043 271 253q3.612-1.93 7.228-3.854 2.217-1.179 4.43-2.367c6.322-3.368 11.207-4.81 18.342-3.779 6.498 2.503 12.275 6.09 18 10 3.087 1.544 5.607 2.071 9 2.313 3.282.367 4.172.807 7.063 2.812C337 261 337 261 337.063 264.25c-1.27 4.483-3.024 8.569-5.063 12.75l2.266-.84 2.984-1.098 2.953-1.09C343 273 343 273 345.297 272.56c.562-.185 1.124-.37 1.703-.559 1.26-3.778 1.319-7.348 1.523-11.309.538-3.035 1.582-4.32 3.477-6.691.667-3.457.667-3.457 0-7-8.796-9.844-25.384-23.198-39.152-24.238-13.486-.265-23.903 4.103-35.989 9.554-14.046 6.218-27.134 7.751-42.02 2.852C232 234 232 234 229.38 232.238L227 231c-3.14 1.172-5.244 3.006-7.652 5.29-4.286 3.827-8.815 6.474-13.91 9.085l-2.46 1.324c-4.732 2.468-8.645 3.914-13.978 4.301l2.14-1.687C209.128 234.766 223.929 215.36 228 192q.13-2.508.133-5.02l.004-2.85-.012-2.942.012-2.909c-.008-5.52-.323-10.819-1.137-16.279l-2.273-.078c-17.291-.958-29.87-9.967-41.727-21.922l-1-2c3.772 1.092 7.108 2.544 10.563 4.375 14.145 7.244 32.904 10.84 48.558 6.367C248.9 145.67 252.98 141.26 257 134l1.152-2.02c6.275-12.384 6.392-27.403 6.848-40.98l2 1a85 85 0 0 1 1.625 7.063l.4 2.058c.874 4.728 1.268 9.092.975 13.879 4.337-1.32 8.67-2.658 13-4l2.762-.828 2.363-.734 2.07-.63c2.246-1.006 3.378-1.783 4.805-3.808 1.337-11.17-8.48-22.615-15-31-5.933-6.775-12.417-12.18-20-17l-2.594-1.773C240.952 44.642 220.986 42.495 202 40l1 2c.319 3.2.324 6.41.375 9.625l.113 2.66c.1 7.408-2.04 12.101-7.134 17.44-11.052 10.484-28.148 13.69-42.256 18.138l-2.933.927q-2.763.87-5.53 1.725c-41.528 12.998-81.558 35.89-103.424 74.657-18.109 35.103-21.103 80.904-9.273 118.562.35 1.078.7 2.156 1.062 3.266l.633 2.288c1.69 6.041 3.948 11.388 6.93 16.9l1.328 2.479c8.513 15.627 18.94 29.186 31.359 41.896l1.427 1.48c3.48 3.472 7.019 5.682 11.323 7.957l.045-1.844C87.29 353.58 89.45 349.666 94 345c10.322-9.236 21.385-10.775 34.844-10.206 4.99.476 9.586 2.234 14.156 4.206l.664-2.527c2.79-9.904 6.245-18.17 14.926-24.192 9.702-5.157 20.361-6.46 31.16-6.469l2.613-.037 2.496-.005 2.265-.013C199 306 199 306 201 308l-3.008.629c-13.394 2.967-26.82 7.539-35.992 18.371-2.882 4.737-3.626 8.997-4.312 14.375-2.132 14.217-6.582 28.973-17.989 38.559-4.01 2.81-7.92 4.84-12.699 6.066 2.74 2.74 5.988 3.643 9.563 4.938l2.208.81c2.074.757 4.151 1.505 6.229 2.252.859.315 1.717.63 2.602.953 9.198 3.238 18.546 5.184 28.272 5.782 2.932.249 5.734.686 8.626 1.222 6.791 1.162 13.567 1.709 20.438 2.168l3.552.262c52.414 3.646 102.875-10.47 143.158-44.633A293 293 0 0 0 359 353l2.676-2.516c21.269-20.577 36.517-46.35 44.238-74.859C408.256 267.4 411.338 259.708 418 254c3.584-.534 5.283-.518 8.25 1.625 6.287 8.532 4.758 22.582 3.461 32.605-3.8 20.74-15.997 40.187-29.711 55.77l-2.176 2.508C358.668 390.88 302.734 417.71 244 423c-2.929.145-5.853.186-8.785.203l-2.455.021c-2.608.018-5.215.024-7.822.026l-2.71.002c-14.29-.017-28.134-.756-42.228-3.252l-2.98-.488c-56.17-9.284-107.356-38.892-140.957-85.137C11 299.111 2.54 257.709 9.096 215.061c6.753-39.786 27.443-76.624 60.636-100.29A304 304 0 0 1 80 108l1.856-1.179c21.19-13.198 44.991-20.662 68.674-27.962C174.417 72.292 174.417 72.292 194 58l2.188-2.5c3.528-4.867 3.935-8.36 4.812-14.5h-17l1-3c1.727-.86 1.727-.86 3.98-1.535l2.509-.761 2.698-.767 2.748-.797c30.304-8.53 56.743-2.492 81.3 17.16" fill="#abb2bf"/><path d="m201 41 2 1c.147 3.166.235 6.331.313 9.5l.126 2.688c.138 7.476-1.941 12.147-7.085 17.536-11.049 10.486-28.15 13.692-42.256 18.14a1136 1136 0 0 1-8.462 2.652c-41.529 12.997-81.56 35.89-103.425 74.656-18.109 35.103-21.103 80.904-9.273 118.562.35 1.078.7 2.156 1.062 3.266l.633 2.288c1.69 6.041 3.948 11.388 6.93 16.9l1.328 2.479c8.513 15.627 18.94 29.186 31.359 41.896l1.427 1.48c3.48 3.472 7.019 5.682 11.323 7.957l.045-1.844C87.29 353.58 89.45 349.666 94 345c10.322-9.236 21.385-10.775 34.844-10.206 4.99.476 9.586 2.234 14.156 4.206l.664-2.527c2.79-9.904 6.245-18.17 14.926-24.192 9.702-5.157 20.361-6.46 31.16-6.469l2.613-.037 2.496-.005 2.265-.013C199 306 199 306 201 308l-3.008.629c-13.394 2.967-26.82 7.539-35.992 18.371-2.882 4.737-3.626 8.997-4.312 14.375-2.132 14.217-6.582 28.973-17.989 38.559-4.01 2.81-7.92 4.84-12.699 6.066 2.74 2.74 5.988 3.643 9.563 4.938l2.208.81c2.074.757 4.151 1.505 6.229 2.252.859.315 1.717.63 2.602.953 9.198 3.238 18.546 5.184 28.272 5.782 2.932.249 5.734.686 8.626 1.222 6.791 1.162 13.567 1.709 20.438 2.168l3.552.262c52.414 3.646 102.875-10.47 143.158-44.633A293 293 0 0 0 359 353l2.676-2.516c21.269-20.577 36.517-46.35 44.238-74.859C408.256 267.4 411.338 259.708 418 254c3.584-.534 5.283-.518 8.25 1.625 6.287 8.532 4.758 22.582 3.461 32.605-3.8 20.74-15.997 40.187-29.711 55.77l-2.176 2.508C358.668 390.88 302.734 417.71 244 423c-2.929.145-5.853.186-8.785.203l-2.455.021c-2.608.018-5.215.024-7.822.026l-2.71.002c-14.29-.017-28.134-.756-42.228-3.252l-2.98-.488c-56.17-9.284-107.356-38.892-140.957-85.137C11 299.111 2.54 257.709 9.096 215.061c6.753-39.786 27.443-76.624 60.636-100.29A304 304 0 0 1 80 108l1.856-1.179c21.19-13.198 44.991-20.662 68.674-27.962C174.417 72.292 174.417 72.292 194 58l2.188-2.5c3.348-4.619 4.15-8.874 4.812-14.5" fill="#abb2bf"/><path d="M390 111c1.176 20.319-5.82 38.278-13 57l-.972 2.575C368.618 189.75 358.172 208.055 344 223l-3-1c-.532-9.293 1.027-17.978 3-27l.691-3.164c6.425-27.24 18.734-61.059 39.309-80.836 2.49-1.245 3.41-.777 6 0" fill="#3e4451"/><path d="M270 119c4.75 1.875 4.75 1.875 7 3h2.39c7.418 0 7.418 0 10.528 2.61 3.722 5.243 5.233 10.98 6.96 17.1 2.693 7.9 7.319 14.478 14.122 19.29l-1 2c-1.146-.07-2.292-.14-3.473-.21-8.204-.612-8.204-.612-15.968 1.405-1.645 1.519-3.08 3.129-4.559 4.805-7.365 5.084-14.218 5.768-23 5-4.15-1.01-8.04-2.415-12-4l-3.687-1.25C245 167 245 167 244.426 165.035c-.301-2.222-.301-2.222-.426-6.035l2.23-1.355c9.63-5.967 19.163-13.323 21.895-24.895.92-4.56 1.434-9.12 1.875-13.75" fill="#e06c75"/><path d="M143 339c1 2 1 2 .18 4.54C137.468 357.048 131 367.088 117 373l-2.375 1.25c-5.032 1.438-10.203 1.884-15.034-.378-2.332-1.527-4.525-3.148-6.716-4.872l-2.32-1.734A311 311 0 0 1 85 363l2-1c.24-1.863.24-1.863.25-4.062.61-6.505 3.92-10.406 8.68-14.665C108.903 333.026 128.2 331.545 143 339" fill="#c678dd"/><path d="M243 281c3 1 3 1 4.473 3.703l1.59 3.547c5.21 11.036 13.3 23.81 24.937 28.75 2.086.343 2.086.343 4.258.379l2.394.103 2.473.08c8.635.318 8.635.318 10.875 1.438-.152 1.797-.152 1.797-1 4-2.504 1.703-2.504 1.703-5.562 3.25l-3.067 1.578L282 329v9c-9.175.85-15.527-2.997-22.75-8.375A285 285 0 0 1 255 326l-1.895-1.441c-3.262-2.927-4.048-4.84-4.398-9.278-.008-2.825.087-5.642.191-8.465.223-8.354-2.477-13.595-7.898-19.816a160 160 0 0 0-3-3c2.313-1.562 2.313-1.562 5-3m147-170c1.176 20.322-5.825 38.274-13 57l-.952 2.546c-2.607 6.793-5.885 13.16-9.298 19.579l-1.68 3.188Q363.042 197.16 361 201h-3c.637-7.384.637-7.384 2.469-10.488 2.28-5.23 2.368-10.424 2.719-16.074l.248-3.346c.535-7.706.657-15.37.564-23.092h2c2.08 9.882.804 20.03 0 30h2l.313-1.687C369 174 369 174 370.375 171.938c2.064-3.731 2.952-7.489 3.977-11.61C375 158 375 158 376 157c.283-2.254.448-4.508.621-6.773C377 148 377 148 379 145c1.964-6.606 2.262-13.154 2-20-4.244 3.88-7.11 8.043-10 13l-4-1c2.883-9.863 9.723-18.821 17-26 2.49-1.245 3.41-.777 6 0" fill="#333842"/><path d="M382 124c.586 17.121.586 17.121-4 24-.346 2.011-.346 2.011-.437 4.188-.433 4.678-1.715 8.519-3.563 12.812l-1.5 3.625A188 188 0 0 1 368 178h-2c-.42-13.064.848-26 2-39h3l.32-1.71c.796-2.682 1.996-4.597 3.555-6.915l1.555-2.352C379.552 124 379.552 124 382 124" fill="#61afef"/><path d="M364 149h1a319 319 0 0 1-.687 25l-.163 3.29c-.657 9.583-3.85 17.224-8.15 25.71h-1c.942-36.826.942-36.826 5-49h2z" fill="#98c379"/><path d="M382 124c.617 18.039.617 18.039-3.574 22.781L377 148l-1-7-1.059 1.75-1.378 2.25-1.372 2.25L371 149h-1l-.437-3.312c-.446-3.62-.446-3.62-1.563-6.688h3l.32-1.71c.796-2.682 1.996-4.597 3.555-6.915l1.555-2.352C379.552 124 379.552 124 382 124" fill="#56b6c2"/><path d="M353 179h1c.006 4.522-.053 9.041-.125 13.563l.008 3.869c-.221 10.636-.221 10.636-3.875 14.97C347 214 347 214 346 214c-.513-12.848 1.264-23.47 7-35" fill="#d19a66"/><path d="m366 137 5 1-3 1v14l-2 1v-6h-2l-.875 3.313C362 155 362 155 360 158c-.662 2.046-.662 2.046-1.125 4.188L358 166l-2-2-2 1c2.023-6.648 4.65-12.82 7.688-19.062.415-.866.83-1.732 1.26-2.624q1.518-3.16 3.052-6.314" fill="#3e4451"/><path d="M363 171h1c-.145 10.368-1.192 18.594-6 28l-1.16 2.328L356 203h-1l1-13h1l.297-2.887.453-3.8.422-3.762c.898-3.85 2.097-5.74 4.828-8.551" fill="#56b6c2"/><path d="M376 149h1c.33 6.153-.53 10.394-3 16l-1.5 3.625A188 188 0 0 1 368 178h-2v-14h1l1 6 .043-1.977c.358-6.561 1.459-9.306 5.957-14.023 1.305-2.712 1.305-2.712 2-5" fill="#be5046"/><path d="M356 163h1c.095 6.433.153 12.658-1 19h-1l-1-5-.77 2.371-1.043 3.066-1.019 3.06L350 188l-3 1c1.219-9.334 2.81-18.579 9-26" fill="#333842"/><path d="M360 154h1c-.523 12.408-1.483 24.674-3 37l-2-1c-.308-12.218.097-24.29 4-36" fill="#5c6370"/><path d="M354 176h1c1.21 5.74 1.22 11.411 1.25 17.25l.063 3.047.015 2.906.028 2.646L356 204l-3 2q-.037-6.168-.055-12.335-.008-2.1-.02-4.2a1698 1698 0 0 1-.023-6.024l-.016-3.665C353 177 353 177 354 176" fill="#333842"/><path d="M369 140h1c.1 7.805.072 15.581-.375 23.375-.07 1.245-.14 2.49-.21 3.773L369 170l-2 1c-.262-26.476-.262-26.476 2-31" fill="#5c6370"/><path d="M364 148h2c1.207 6.441 1.184 12.716 1.188 19.25l.037 3.625.005 3.453.013 3.153C367 180 367 180 365 182c-.995-7.387-1.118-14.616-1.062-22.062l.013-3.49q.018-4.225.049-8.448m-4 1 1 2h2c-.613 2.962-1.254 4.38-3 7-.662 2.046-.662 2.046-1.125 4.188L358 166l-2-2-2 1c1.748-5.467 3.658-10.758 6-16" fill="#3e4451"/><path d="M170 218c1.38 3.767.596 6.448-.437 10.25l-.872 3.266L168 234h-3c-1-2-1-2-.04-5.004.468-1.174.934-2.349 1.415-3.559l1.398-3.566C169 219 169 219 170 218" fill="#5c6370"/><path d="M347 183c1.125 3.75 1.125 3.75 0 6h2l-2 11-3-1c.59-5.508 1.567-10.649 3-16" fill="#3e4451"/><path d="M364 149h1v12h-2l-2 2c-.293-5.673-.006-8.99 3-14" fill="#e5c07b"/><path d="M353 185h1l.184 2.887.253 3.8.247 3.762c.26 2.933.664 5.685 1.316 8.551l-3 2zm5-28c1.108 3.325.845 5.622 0 9l-2-2-2 1c.599-2.352 1.27-4.686 2-7z" fill="#3e4451"/><path d="m196 245 2 1v3l-9 2 2.375-1.875c2.593-2.024 2.593-2.024 4.625-4.125" fill="#5c6370"/><path d="M347 183c1.125 3.75 1.125 3.75 0 6h2l-1 4h-2c-.125-6.625-.125-6.625 1-10" fill="#3e4451"/></svg>